HIERARCHY
ROOT RootJoint
{
    OFFSET   0.000000   0.000000   0.000000
    CHANNELS 6 Xposition Yposition Zposition Xrotation Yrotation Zrotation
    JOINT pelvis_lowerback
    {
        OFFSET   0.000000   0.093605   0.000000
        CHANNELS 3 Xrotation Yrotation Zrotation
        JOINT lowerback_torso
        {
            OFFSET   0.000000   0.100000   0.000000
            CHANNELS 3 Xrotation Yrotation Zrotation
            JOINT torso_head
            {
                OFFSET   0.000000   0.282350   0.000000
                CHANNELS 3 Xrotation Yrotation Zrotation
                End Site
                {
                    OFFSET   0.000000   0.192650   0.000000
                }
            }
            JOINT rTorso_Clavicle
            {
                OFFSET  -0.001000   0.157500   0.000000
                CHANNELS 3 Xrotation Yrotation Zrotation
                JOINT rShoulder
                {
                    OFFSET  -0.117647   0.000000   0.000000
                    CHANNELS 3 Xrotation Yrotation Zrotation
                    JOINT rElbow
                    {
                        OFFSET  -0.245000   0.000000   0.000000
                        CHANNELS 3 Xrotation Yrotation Zrotation
                        JOINT rWrist
                        {
                            OFFSET  -0.240000   0.000000   0.000000
                            CHANNELS 3 Xrotation Yrotation Zrotation
                            End Site
                            {
                                OFFSET  -0.116353  -0.002500   0.000000
                            }
                        }
                    }
                }
            }
            JOINT lTorso_Clavicle
            {
                OFFSET   0.001000   0.157500   0.000000
                CHANNELS 3 Xrotation Yrotation Zrotation
                JOINT lShoulder
                {
                    OFFSET   0.117647   0.000000   0.000000
                    CHANNELS 3 Xrotation Yrotation Zrotation
                    JOINT lElbow
                    {
                        OFFSET   0.245000   0.000000   0.000000
                        CHANNELS 3 Xrotation Yrotation Zrotation
                        JOINT lWrist
                        {
                            OFFSET   0.240000   0.000000   0.000000
                            CHANNELS 3 Xrotation Yrotation Zrotation
                            End Site
                            {
                                OFFSET   0.116353  -0.002500   0.000000
                            }
                        }
                    }
                }
            }
        }
    }
    JOINT rHip
    {
        OFFSET  -0.100000  -0.051395   0.000000
        CHANNELS 3 Xrotation Yrotation Zrotation
        JOINT rKnee
        {
            OFFSET   0.000000  -0.410000   0.000000
            CHANNELS 3 Xrotation Yrotation Zrotation
            JOINT rAnkle
            {
                OFFSET   0.000000  -0.390000   0.000000
                CHANNELS 3 Xrotation Yrotation Zrotation
                JOINT rToeJoint
                {
                    OFFSET   0.000000  -0.050000   0.130000
                    CHANNELS 3 Xrotation Yrotation Zrotation
                    End Site
                    {
                        OFFSET  -0.010000   0.002000   0.060000
                    }
                }
            }
        }
    }
    JOINT lHip
    {
        OFFSET   0.100000  -0.051395   0.000000
        CHANNELS 3 Xrotation Yrotation Zrotation
        JOINT lKnee
        {
            OFFSET   0.000000  -0.410000   0.000000
            CHANNELS 3 Xrotation Yrotation Zrotation
            JOINT lAnkle
            {
                OFFSET   0.000000  -0.390000   0.000000
                CHANNELS 3 Xrotation Yrotation Zrotation
                JOINT lToeJoint
                {
                    OFFSET   0.000000  -0.050000   0.130000
                    CHANNELS 3 Xrotation Yrotation Zrotation
                    End Site
                    {
                        OFFSET   0.010000   0.002000   0.060000
                    }
                }
            }
        }
    }
}
MOTION
Frames: 14
Frame Time:   0.008333
 -2.376719   0.925631   3.975860   0.000000   0.000000   0.000000   0.000000   0.000000   0.000000   0.000000   0.000000   0.000000   0.000000   0.000000   0.000000   0.000000   0.000000   0.000000   0.000000   0.000000   0.000000   0.000000   0.000000   0.000000   0.000000   0.000000   0.000000   0.000000   0.000000   0.000000   0.000000   0.000000   0.000000   0.000000   0.000000   0.000000   0.000000   0.000000   0.000000   0.000000   0.000000   0.000000   0.000000   0.000000   0.000000   0.000000   0.000000   0.000000   0.000000   0.000000   0.000000   0.000000   0.000000   0.000000   0.000000   0.000000   0.000000   0.000000   0.000000   0.000000   0.000000   0.000000   0.000000
 -2.376447   0.926432   3.976376  -0.562325   0.087534   0.089651   0.435078   0.019456  -0.074842   0.278832  -0.180482   0.009100  -0.057227   0.131043   0.077785   0.225092  -0.335586   0.691146   0.887745   0.241394   1.880080   0.026598   1.166706  -0.013080   0.523960  -0.449790  -3.278195   0.250611   0.176517  -0.782337   0.916437   0.043939  -1.864396   0.023659  -1.028391   0.012023   0.501648   0.293797   3.307638   0.445478   0.224199  -0.290617   0.759889   0.001353   0.002061  -0.894408  -0.101770   0.068197  -0.072412  -0.000083  -0.000134   0.467085  -0.035321   0.018791   0.746446  -0.000699   0.000350  -0.927606   0.243277   0.117775   0.308457  -0.000604   0.000798
 -2.376090   0.927755   3.977110  -1.166636   0.218480   0.188910   0.821523   0.010054  -0.137341   0.596660  -0.385784   0.019054  -0.083512   0.255937   0.160825   0.449100  -0.620107   2.167406   1.745720   0.553850   4.393998   0.061943   2.300971  -0.022305   1.086839  -0.567745  -5.833687   0.500035   0.284056  -2.375595   1.812196  -0.000759  -4.390136   0.055012  -2.028971   0.020782   1.046026   0.305946   5.858450   0.935193   0.438132  -0.729496   1.603171   0.003690   0.004128  -1.729605  -0.198388   0.129392  -0.181200  -0.000330  -0.000348   1.001424  -0.059903   0.146190   1.578188  -0.002160   0.001114  -1.795335   0.473158   0.232297   0.544915  -0.001173   0.001341
 -2.375698   0.929132   3.977988  -1.737825   0.361455   0.286402   1.149349  -0.014731  -0.187653   0.877589  -0.595587   0.031858  -0.108421   0.372428   0.241954   0.664338  -0.851760   4.111958   2.568999   0.924648   7.326473   0.096593   3.368630  -0.027894   1.634233  -0.574114  -7.460089   0.733265   0.331140  -4.442497   2.683519  -0.125963  -7.348135   0.085841  -2.976152   0.026506   1.578676   0.201111   7.458281   1.408135   0.630200  -1.271959   2.417854   0.006299   0.005540  -2.508009  -0.290873   0.184330  -0.284759  -0.000619  -0.000505   1.543982  -0.074098   0.378447   2.387245  -0.003964   0.001939  -2.604761   0.688048   0.343245   0.756133  -0.001730   0.001723
 -2.375300   0.930217   3.978968  -2.265325   0.500643   0.380448   1.427958  -0.048251  -0.230783   1.116109  -0.802933   0.044341  -0.136813   0.481144   0.320183   0.872636  -1.044898   6.314058   3.359354   1.350258  10.539723   0.126312   4.368612  -0.030882   2.160184  -0.533869  -8.375911   0.948913   0.338626  -6.771756   3.523792  -0.322157 -10.561589   0.112256  -3.867925   0.029993   2.094587   0.034333   8.326612   1.852372   0.801440  -1.891817   3.183969   0.008781   0.006274  -3.234883  -0.379241   0.233748  -0.386056  -0.000921  -0.000610   2.081072  -0.079791   0.699705   3.155573  -0.005827   0.002663  -3.360911   0.888666   0.450545   0.943295  -0.002212   0.001945
 -2.374950   0.930740   3.980020  -2.751319   0.629114   0.473058   1.666923  -0.086740  -0.276212   1.319327  -1.004328   0.042135  -0.167642   0.582509   0.398097   1.075478  -1.212130   8.639091   4.116856   1.826167  13.943363   0.149425   5.302517  -0.032087   2.662560  -0.474352  -8.796200   1.148372   0.323140  -9.261100   4.295209  -0.568800 -13.790319   0.132248  -4.705208   0.031651   2.591785  -0.171643   8.627130   2.266534   0.953927  -2.568133   3.900191   0.010913   0.006465  -3.913921  -0.463460   0.278217  -0.485079  -0.001209  -0.000668   2.608104  -0.078565   1.094297   3.882093  -0.007596   0.003243  -4.067420   1.075721   0.554003   1.109338  -0.002600   0.002039
 -2.374670   0.930504   3.981118  -3.200048   0.744013   0.563202   1.874077  -0.128048  -0.327233   1.494869  -1.198156   0.027004  -0.199329   0.677004   0.471366   1.274232  -1.361850  10.999280   4.835679   2.344938  17.452173   0.165669   6.173292  -0.032063   3.140809  -0.409077  -8.880359   1.332730   0.295679 -11.797453   5.000359  -0.852033 -16.954340   0.145634  -5.489472   0.032057   3.067550  -0.398425   8.562862   2.651344   1.089851  -3.282908   4.568800   0.012611   0.006264  -4.548210  -0.543431   0.318319  -0.580502  -0.001461  -0.000688   3.122485  -0.071561   1.548421   4.568484  -0.009167   0.003678  -4.727472   1.250036   0.653537   1.257435  -0.002888   0.002040
 -2.374454   0.928744   3.981602  -3.264309   0.721499   0.514874   1.773069  -0.136560  -0.208969   1.635657  -1.347556   0.015859  -0.374043   0.621944   0.466854   1.548601  -1.299838  12.784258   5.549629   2.819737  20.569515   0.175407   7.121138  -0.033849   3.554979  -0.299639  -7.708631   1.614293   0.257936 -13.535539   5.525526  -1.062911 -20.137496   0.151977  -6.301989   0.032358   3.489988  -0.763540   7.478803   2.384619   0.953869  -3.795942   5.663913   0.015443   0.002589  -5.036076  -0.620777   0.625394  -0.519433  -0.001027  -0.000687   3.291870   0.083237   2.096570   4.657951  -0.007711   0.003083  -4.931241   1.461592   0.670951   1.442713  -0.003128   0.002206
 -2.374255   0.925703   3.981838  -3.294890   0.703631   0.446465   1.715138  -0.150393  -0.074863   1.760754  -1.477484   0.024372  -0.551485   0.561561   0.461195   1.783345  -1.194893  14.235629   6.183515   3.318293  23.326730   0.175700   8.017961  -0.034688   3.965514  -0.124555  -6.656800   1.866500   0.205737 -14.938201   6.003147  -1.283778 -22.967527   0.150244  -7.063359   0.032039   3.893131  -1.153989   6.497813   2.096196   0.808840  -4.236554   6.711752   0.016881  -0.000400  -5.485261  -0.698142   0.911605  -0.436644  -0.000654  -0.000746   3.373250   0.227846   2.613097   4.631049  -0.006067   0.002426  -5.123283   1.659440   0.688397   1.631843  -0.003243   0.002323
 -2.374059   0.921528   3.981942  -3.317106   0.693573   0.376043   1.689340  -0.156094   0.059683   1.889322  -1.588746   0.043324  -0.713939   0.504271   0.456925   1.984759  -1.072941  15.444956   6.745962   3.820220  25.792751   0.170049   8.861617  -0.034725   4.363857   0.077083  -5.860884   2.090113   0.145403 -16.095194   6.435963  -1.509655 -25.499137   0.143663  -7.775896   0.031078   4.277610  -1.536946   5.770862   1.834967   0.674119  -4.628449   7.690230   0.017263  -0.002513  -5.903807  -0.772324   1.178199  -0.357425  -0.000384  -0.000775   3.391008   0.361738   3.080086   4.568897  -0.004647   0.001853  -5.304193   1.843740   0.705368   1.804406  -0.003187   0.002345
 -2.373863   0.916324   3.981981  -3.335424   0.689548   0.306899   1.684613  -0.150540   0.192467   2.020451  -1.681154   0.069218  -0.861344   0.450744   0.453334   2.159856  -0.946002  16.469590   7.246605   4.313384  28.016910   0.160825   9.652512  -0.034110   4.747202   0.285474  -5.274346   2.292008   0.086877 -17.063878   6.830101  -1.731442 -27.781218   0.134302  -8.440688   0.029557   4.643298  -1.899499   5.256574   1.607738   0.549285  -4.977906   8.605290   0.016931  -0.003934  -6.294053  -0.843041   1.426560  -0.283281  -0.000195  -0.000776   3.360615   0.485508   3.497162   4.489773  -0.003487   0.001376  -5.473794   2.015388   0.721686   1.963104  -0.003021   0.002303
 -2.373662   0.916379   3.982418  -3.514579   0.582663   0.544327   1.746191  -0.097137   0.077648   2.221263  -1.731005  -0.003314  -0.985062   0.402159   0.442189   2.308298  -0.795788  17.731892   7.685178   4.809585  30.161231   0.152136  10.378935  -0.032681   5.109742   0.412008  -4.869528   2.476564   0.031276 -18.205089   7.187745  -1.945819 -29.928390   0.125260  -9.040032   0.027573   4.980614  -2.117754   4.956481   1.393406   0.581894  -5.286704   9.480684   0.013927  -0.004250  -6.821794  -0.735245   1.887100  -0.333162   0.000014  -0.000621   3.417737   0.518751   3.250623   4.829774  -0.002775   0.000969  -5.476710   2.056262   0.455500   1.548020  -0.003395   0.001892
 -2.373656   0.916494   3.983004  -3.632799   0.480187   0.698008   1.749283  -0.043802   0.068133   2.373867  -1.767776  -0.056762  -1.100916   0.356383   0.423852   2.458155  -0.672465  18.732229   8.084556   5.285122  32.155304   0.141801  11.070971  -0.030813   5.460564   0.613438  -4.336578   2.669128   0.006722 -19.126111   7.526648  -2.146086 -31.951870   0.115172  -9.608742   0.025293   5.305724  -2.385942   4.518570   1.174601   0.482961  -5.447526  10.233767   0.010892  -0.005056  -7.210736  -0.798494   2.107235  -0.459947   0.000255  -0.000168   3.489495   0.627261   3.093733   5.030644  -0.002216   0.000818  -5.490507   2.187909   0.428857   1.278989  -0.002781   0.001146
 -2.373849   0.916572   3.983564  -3.639971   0.402902   0.850330   1.707012   0.016844  -0.011583   2.448762  -1.783784  -0.023980  -1.197193   0.272026   0.392186   2.616628  -0.626949  19.229937   8.423815   5.726202  33.682400   0.127722  11.763394  -0.028715   5.759425   1.004419  -3.070109   2.888685   0.028912 -19.559443   7.675975  -2.283303 -33.682378   0.105633 -10.315893   0.022466   5.572536  -2.689784   3.504679   1.005839   0.451622  -5.620076  10.657733   0.008670  -0.004579  -7.531329  -0.764448   2.211002  -0.432111   0.000182  -0.000156   3.495198   0.768930   2.952720   5.122594  -0.001779   0.000718  -5.522814   2.284621   0.414746   1.361053  -0.002224   0.001042
